<?xml version="1.0" standalone="no"?><!DOCTYPE svg PUBLIC "-//W3C//DTD SVG 1.1//EN" "http://www.w3.org/Graphics/SVG/1.1/DTD/svg11.dtd"><svg t="1694004771786" class="icon" viewBox="0 0 1024 1024" version="1.1" xmlns="http://www.w3.org/2000/svg" p-id="12392" xmlns:xlink="http://www.w3.org/1999/xlink" width="200" height="200"><path d="M570.685 92.16c157.45 0 285.082 127.631 285.082 285.082v31.098c82.37 49.132 137.513 139.1 137.513 241.961 0 155.485-126.054 281.539-281.539 281.539H312.26c-155.485 0-281.539-126.054-281.539-281.539 0-106.895 59.566-199.874 147.323-247.562v-25.497c0.01-157.45 127.652-285.082 285.092-285.082h107.56z" fill="#F8EEDE" p-id="12393"></path><path d="M570.685 92.16c82.883 0 157.492 35.359 209.583 91.822 79.738-65.27 141.21-69.458 184.422-12.564 69.181 91.105 5.274 217.61-72.08 260.413-0.665 0.369-1.33 0.717-2.006 1.065 53.995 44.442 91.136 108.616 100.403 181.494l5.785 0.01c-227.46 1.3-386.519-126.403-477.153-383.099l-2.724-7.813-3.143-5.417-3.124 5.417C420.782 484.557 261.56 614.861 32.993 614.4c10.302-80.947 54.958-151.153 118.897-195.543-67.686-51.528-115.507-164.25-52.326-247.45 40.038-52.715 95.764-52.992 167.178-0.819A284.099 284.099 0 0 1 463.135 92.16h107.54z" fill="#F5E5CD" p-id="12394"></path><path d="M502.18 882.442a24.556 10.24 0 1 0 49.11 0 24.556 10.24 0 1 0-49.11 0z" fill="#B8917C" p-id="12395"></path><path d="M286.945 547.502c-28.21-9.769 16.558-140.534 44.77-130.765 28.21 9.77 41.062 46.96 28.692 83.077-12.36 36.107-45.25 57.457-73.462 47.688z m447.929 0c28.21-9.769-16.558-140.534-44.77-130.765-28.21 9.77-41.062 46.96-28.692 83.077 12.36 36.107 45.26 57.457 73.462 47.688z" fill="#150D0A" p-id="12396"></path><path d="M521.83 843.141c48.814 0 88.392-37.601 88.392-83.968 0-46.377-176.794-46.377-176.794 0 0 46.367 39.578 83.968 88.392 83.968z" fill="#D4AC99" p-id="12397"></path><path d="M591.155 754.022c-50.043 31.703-68.526 52.583-55.44 62.638 0.482 0.594 10.446 3.82 25.683-13.721 5.59-6.451 15.513-22.743 29.757-48.917z m-138.086 0c50.043 31.703 68.526 52.583 55.44 62.638-0.482 0.594-10.446 3.82-25.683-13.721-5.59-6.451-15.513-22.743-29.757-48.917z" fill="#9F574D" p-id="12398"></path><path d="M763.894 236.81c75.909-104.325 136.919-126.116 183.05-65.392 69.181 91.105 5.263 217.61-72.09 260.413-51.558 28.539-88.555-36.465-110.95-195.02z m-481.28 0c-75.9-104.325-136.92-126.116-183.04-65.392-69.182 91.105-5.264 217.61 72.09 260.413 51.568 28.539 88.555-36.465 110.97-195.02z" fill="#F4DDBA" p-id="12399"></path><path d="M747.95 639.304c52.675 0 95.375-18.166 95.375-40.571s-42.7-40.571-95.375-40.571c-52.685 0-95.386 18.166-95.386 40.57s42.701 40.572 95.386 40.572z m-471.9 0c52.685 0 95.386-18.166 95.386-40.571s-42.701-40.571-95.386-40.571c-52.675 0-95.375 18.166-95.375 40.57s42.7 40.572 95.375 40.572z" fill="#D36F3E" fill-opacity=".3" p-id="12400"></path></svg>